<svg xmlns="http://www.w3.org/2000/svg" width="1741.126" height="2375.123" viewBox="0 0 1741.126 2375.123">
  <g id="Group_6063" data-name="Group 6063" transform="translate(151)">
    <path id="Path_1333" data-name="Path 1333" d="M0,0H1440V2375.123H0Z" fill="#ffe2e2"/>
    <path id="Path_1337" data-name="Path 1337" d="M71,2451.268H1812.126L936.271,1799.3Z" transform="translate(-222 -76.146)" fill="#ffd0d0"/>
    <g id="Group_5851" data-name="Group 5851" transform="translate(-4596 -527.125)" opacity="0.298">
      <g id="Group_5849" data-name="Group 5849" transform="translate(4616 612.589)">
        <path id="Line_1" data-name="Line 1" d="M1.5,2288.78h-3V0h3Z" transform="translate(1.5 0.073)" fill="#ffb7b7"/>
        <path id="Line_2" data-name="Line 2" d="M1.5,2288.78h-3V0h3Z" transform="translate(21.5 0.037)" fill="#ffb7b7"/>
        <path id="Line_3" data-name="Line 3" d="M1.5,2288.78h-3V0h3Z" transform="translate(41.5 0.073)" fill="#ffb7b7"/>
        <path id="Line_4" data-name="Line 4" d="M1.5,2288.78h-3V0h3Z" transform="translate(61.5 0.037)" fill="#ffb7b7"/>
        <path id="Line_5" data-name="Line 5" d="M1.5,2288.78h-3V0h3Z" transform="translate(81.5)" fill="#ffb7b7"/>
        <path id="Line_6" data-name="Line 6" d="M1.5,2288.78h-3V0h3Z" transform="translate(101.5 0.037)" fill="#ffb7b7"/>
        <path id="Line_7" data-name="Line 7" d="M1.5,2288.78h-3V0h3Z" transform="translate(121.5 0.146)" fill="#ffb7b7"/>
        <path id="Line_8" data-name="Line 8" d="M1.5,2288.78h-3V0h3Z" transform="translate(141.5 0.11)" fill="#ffb7b7"/>
        <path id="Line_9" data-name="Line 9" d="M1.5,2288.78h-3V0h3Z" transform="translate(161.5 0.146)" fill="#ffb7b7"/>
        <path id="Line_10" data-name="Line 10" d="M1.5,2288.78h-3V0h3Z" transform="translate(181.5 0.11)" fill="#ffb7b7"/>
        <path id="Line_11" data-name="Line 11" d="M1.5,2288.78h-3V0h3Z" transform="translate(201.5 0.073)" fill="#ffb7b7"/>
        <path id="Line_12" data-name="Line 12" d="M1.5,2288.78h-3V0h3Z" transform="translate(221.5 0.11)" fill="#ffb7b7"/>
        <path id="Line_13" data-name="Line 13" d="M1.5,2288.78h-3V0h3Z" transform="translate(241.5 0.22)" fill="#ffb7b7"/>
        <path id="Line_14" data-name="Line 14" d="M1.5,2288.78h-3V0h3Z" transform="translate(261.5 0.183)" fill="#ffb7b7"/>
        <path id="Line_15" data-name="Line 15" d="M1.5,2288.78h-3V0h3Z" transform="translate(281.5 0.22)" fill="#ffb7b7"/>
        <path id="Line_16" data-name="Line 16" d="M1.5,2288.78h-3V0h3Z" transform="translate(301.5 0.183)" fill="#ffb7b7"/>
        <path id="Line_17" data-name="Line 17" d="M1.5,2288.78h-3V0h3Z" transform="translate(321.5 0.146)" fill="#ffb7b7"/>
        <path id="Line_18" data-name="Line 18" d="M1.5,2288.78h-3V0h3Z" transform="translate(341.5 0.183)" fill="#ffb7b7"/>
        <path id="Line_19" data-name="Line 19" d="M1.5,2288.78h-3V0h3Z" transform="translate(361.5 0.293)" fill="#ffb7b7"/>
        <path id="Line_20" data-name="Line 20" d="M1.5,2288.78h-3V0h3Z" transform="translate(381.5 0.256)" fill="#ffb7b7"/>
        <path id="Line_21" data-name="Line 21" d="M1.5,2288.78h-3V0h3Z" transform="translate(401.5 0.293)" fill="#ffb7b7"/>
        <path id="Line_22" data-name="Line 22" d="M1.5,2288.78h-3V0h3Z" transform="translate(421.5 0.256)" fill="#ffb7b7"/>
        <path id="Line_23" data-name="Line 23" d="M1.5,2288.78h-3V0h3Z" transform="translate(441.5 0.22)" fill="#ffb7b7"/>
        <path id="Line_24" data-name="Line 24" d="M1.5,2288.78h-3V0h3Z" transform="translate(461.5 0.256)" fill="#ffb7b7"/>
        <path id="Line_25" data-name="Line 25" d="M1.5,2288.78h-3V0h3Z" transform="translate(481.5 0.366)" fill="#ffb7b7"/>
        <path id="Line_26" data-name="Line 26" d="M1.5,2288.78h-3V0h3Z" transform="translate(501.5 0.33)" fill="#ffb7b7"/>
        <path id="Line_27" data-name="Line 27" d="M1.5,2288.78h-3V0h3Z" transform="translate(521.5 0.366)" fill="#ffb7b7"/>
        <path id="Line_28" data-name="Line 28" d="M1.5,2288.78h-3V0h3Z" transform="translate(541.5 0.33)" fill="#ffb7b7"/>
        <path id="Line_29" data-name="Line 29" d="M1.5,2288.78h-3V0h3Z" transform="translate(561.5 0.293)" fill="#ffb7b7"/>
        <path id="Line_30" data-name="Line 30" d="M1.5,2288.78h-3V0h3Z" transform="translate(581.5 0.33)" fill="#ffb7b7"/>
        <path id="Line_31" data-name="Line 31" d="M1.5,2288.78h-3V0h3Z" transform="translate(601.5 0.439)" fill="#ffb7b7"/>
        <path id="Line_32" data-name="Line 32" d="M1.5,2288.78h-3V0h3Z" transform="translate(621.5 0.403)" fill="#ffb7b7"/>
        <path id="Line_33" data-name="Line 33" d="M1.5,2288.78h-3V0h3Z" transform="translate(641.5 0.439)" fill="#ffb7b7"/>
        <path id="Line_34" data-name="Line 34" d="M1.5,2288.78h-3V0h3Z" transform="translate(661.5 0.403)" fill="#ffb7b7"/>
        <path id="Line_35" data-name="Line 35" d="M1.5,2288.78h-3V0h3Z" transform="translate(681.5 0.366)" fill="#ffb7b7"/>
        <path id="Line_36" data-name="Line 36" d="M1.5,2288.78h-3V0h3Z" transform="translate(701.5 0.403)" fill="#ffb7b7"/>
        <path id="Line_37" data-name="Line 37" d="M1.5,2288.78h-3V0h3Z" transform="translate(721.5 0.513)" fill="#ffb7b7"/>
        <path id="Line_38" data-name="Line 38" d="M1.5,2288.78h-3V0h3Z" transform="translate(741.5 0.476)" fill="#ffb7b7"/>
        <path id="Line_39" data-name="Line 39" d="M1.5,2288.78h-3V0h3Z" transform="translate(761.5 0.513)" fill="#ffb7b7"/>
        <path id="Line_40" data-name="Line 40" d="M1.5,2288.78h-3V0h3Z" transform="translate(781.5 0.476)" fill="#ffb7b7"/>
        <path id="Line_41" data-name="Line 41" d="M1.5,2288.78h-3V0h3Z" transform="translate(801.5 0.439)" fill="#ffb7b7"/>
        <path id="Line_42" data-name="Line 42" d="M1.5,2288.78h-3V0h3Z" transform="translate(821.5 0.476)" fill="#ffb7b7"/>
        <path id="Line_43" data-name="Line 43" d="M1.5,2288.78h-3V0h3Z" transform="translate(841.5 0.586)" fill="#ffb7b7"/>
        <path id="Line_44" data-name="Line 44" d="M1.5,2288.78h-3V0h3Z" transform="translate(861.5 0.549)" fill="#ffb7b7"/>
        <path id="Line_45" data-name="Line 45" d="M1.5,2288.78h-3V0h3Z" transform="translate(881.5 0.586)" fill="#ffb7b7"/>
        <path id="Line_46" data-name="Line 46" d="M1.5,2288.78h-3V0h3Z" transform="translate(901.5 0.549)" fill="#ffb7b7"/>
        <path id="Line_47" data-name="Line 47" d="M1.5,2288.78h-3V0h3Z" transform="translate(921.5 0.513)" fill="#ffb7b7"/>
        <path id="Line_48" data-name="Line 48" d="M1.5,2288.78h-3V0h3Z" transform="translate(941.5 0.549)" fill="#ffb7b7"/>
        <path id="Line_49" data-name="Line 49" d="M1.5,2288.78h-3V0h3Z" transform="translate(941.5 0.659)" fill="#ffb7b7"/>
        <path id="Line_50" data-name="Line 50" d="M1.5,2288.78h-3V0h3Z" transform="translate(961.5 0.623)" fill="#ffb7b7"/>
        <path id="Line_51" data-name="Line 51" d="M1.5,2288.78h-3V0h3Z" transform="translate(981.5 0.659)" fill="#ffb7b7"/>
        <path id="Line_52" data-name="Line 52" d="M1.5,2288.78h-3V0h3Z" transform="translate(1001.5 0.623)" fill="#ffb7b7"/>
        <path id="Line_53" data-name="Line 53" d="M1.5,2288.78h-3V0h3Z" transform="translate(1021.5 0.586)" fill="#ffb7b7"/>
        <path id="Line_54" data-name="Line 54" d="M1.5,2288.78h-3V0h3Z" transform="translate(1041.5 0.623)" fill="#ffb7b7"/>
        <path id="Line_55" data-name="Line 55" d="M1.5,2288.78h-3V0h3Z" transform="translate(1061.5 0.732)" fill="#ffb7b7"/>
        <path id="Line_56" data-name="Line 56" d="M1.5,2288.78h-3V0h3Z" transform="translate(1081.5 0.696)" fill="#ffb7b7"/>
        <path id="Line_57" data-name="Line 57" d="M1.5,2288.78h-3V0h3Z" transform="translate(1101.5 0.732)" fill="#ffb7b7"/>
        <path id="Line_58" data-name="Line 58" d="M1.5,2288.78h-3V0h3Z" transform="translate(1121.5 0.696)" fill="#ffb7b7"/>
        <path id="Line_59" data-name="Line 59" d="M1.5,2288.78h-3V0h3Z" transform="translate(1141.5 0.659)" fill="#ffb7b7"/>
        <path id="Line_60" data-name="Line 60" d="M1.5,2288.78h-3V0h3Z" transform="translate(1161.5 0.696)" fill="#ffb7b7"/>
        <path id="Line_61" data-name="Line 61" d="M1.5,2288.78h-3V0h3Z" transform="translate(1181.5 0.806)" fill="#ffb7b7"/>
        <path id="Line_62" data-name="Line 62" d="M1.5,2288.78h-3V0h3Z" transform="translate(1201.5 0.769)" fill="#ffb7b7"/>
        <path id="Line_63" data-name="Line 63" d="M1.5,2288.78h-3V0h3Z" transform="translate(1221.5 0.806)" fill="#ffb7b7"/>
        <path id="Line_64" data-name="Line 64" d="M1.5,2288.78h-3V0h3Z" transform="translate(1241.5 0.769)" fill="#ffb7b7"/>
        <path id="Line_65" data-name="Line 65" d="M1.5,2288.78h-3V0h3Z" transform="translate(1261.5 0.732)" fill="#ffb7b7"/>
        <path id="Line_66" data-name="Line 66" d="M1.5,2288.78h-3V0h3Z" transform="translate(1281.5 0.769)" fill="#ffb7b7"/>
        <path id="Line_67" data-name="Line 67" d="M1.5,2288.78h-3V0h3Z" transform="translate(1301.5 0.879)" fill="#ffb7b7"/>
        <path id="Line_68" data-name="Line 68" d="M1.5,2288.78h-3V0h3Z" transform="translate(1321.5 0.842)" fill="#ffb7b7"/>
        <path id="Line_69" data-name="Line 69" d="M1.5,2288.78h-3V0h3Z" transform="translate(1341.5 0.879)" fill="#ffb7b7"/>
        <path id="Line_70" data-name="Line 70" d="M1.5,2288.78h-3V0h3Z" transform="translate(1361.5 0.842)" fill="#ffb7b7"/>
        <path id="Line_71" data-name="Line 71" d="M1.5,2288.78h-3V0h3Z" transform="translate(1381.5 0.806)" fill="#ffb7b7"/>
        <path id="Line_72" data-name="Line 72" d="M1.5,2288.78h-3V0h3Z" transform="translate(1401.5 0.842)" fill="#ffb7b7"/>
      </g>
      <g id="Group_5850" data-name="Group 5850" transform="translate(4596 2014.125) rotate(-90)">
        <path id="Line_1-2" data-name="Line 1" d="M3,1439.121H0V0H3Z" transform="translate(0 0.073)" fill="#ffb7b7"/>
        <path id="Line_2-2" data-name="Line 2" d="M3,1439.121H0V0H3Z" transform="translate(20 0.037)" fill="#ffb7b7"/>
        <path id="Line_3-2" data-name="Line 3" d="M3,1439.121H0V0H3Z" transform="translate(40 0.073)" fill="#ffb7b7"/>
        <path id="Line_4-2" data-name="Line 4" d="M3,1439.121H0V0H3Z" transform="translate(60 0.037)" fill="#ffb7b7"/>
        <path id="Line_5-2" data-name="Line 5" d="M3,1439.121H0V0H3Z" transform="translate(80 0)" fill="#ffb7b7"/>
        <path id="Line_6-2" data-name="Line 6" d="M3,1439.121H0V0H3Z" transform="translate(100 0.037)" fill="#ffb7b7"/>
        <path id="Line_7-2" data-name="Line 7" d="M3,1439.121H0V0H3Z" transform="translate(120 0.146)" fill="#ffb7b7"/>
        <path id="Line_8-2" data-name="Line 8" d="M3,1439.121H0V0H3Z" transform="translate(140 0.11)" fill="#ffb7b7"/>
        <path id="Line_9-2" data-name="Line 9" d="M3,1439.121H0V0H3Z" transform="translate(160 0.146)" fill="#ffb7b7"/>
        <path id="Line_10-2" data-name="Line 10" d="M3,1439.121H0V0H3Z" transform="translate(180 0.11)" fill="#ffb7b7"/>
        <path id="Line_11-2" data-name="Line 11" d="M3,1439.121H0V0H3Z" transform="translate(200 0.073)" fill="#ffb7b7"/>
        <path id="Line_12-2" data-name="Line 12" d="M3,1439.121H0V0H3Z" transform="translate(220 0.11)" fill="#ffb7b7"/>
        <path id="Line_13-2" data-name="Line 13" d="M3,1439.121H0V0H3Z" transform="translate(240 0.22)" fill="#ffb7b7"/>
        <path id="Line_14-2" data-name="Line 14" d="M3,1439.121H0V0H3Z" transform="translate(260 0.183)" fill="#ffb7b7"/>
        <path id="Line_15-2" data-name="Line 15" d="M3,1439.121H0V0H3Z" transform="translate(280 0.22)" fill="#ffb7b7"/>
        <path id="Line_16-2" data-name="Line 16" d="M3,1439.121H0V0H3Z" transform="translate(300 0.183)" fill="#ffb7b7"/>
        <path id="Line_17-2" data-name="Line 17" d="M3,1439.121H0V0H3Z" transform="translate(320 0.146)" fill="#ffb7b7"/>
        <path id="Line_18-2" data-name="Line 18" d="M3,1439.121H0V0H3Z" transform="translate(340 0.183)" fill="#ffb7b7"/>
        <path id="Line_19-2" data-name="Line 19" d="M3,1439.121H0V0H3Z" transform="translate(360 0.293)" fill="#ffb7b7"/>
        <path id="Line_20-2" data-name="Line 20" d="M3,1439.121H0V0H3Z" transform="translate(380 0.256)" fill="#ffb7b7"/>
        <path id="Line_21-2" data-name="Line 21" d="M3,1439.121H0V0H3Z" transform="translate(400 0.293)" fill="#ffb7b7"/>
        <path id="Line_22-2" data-name="Line 22" d="M3,1439.121H0V0H3Z" transform="translate(420 0.256)" fill="#ffb7b7"/>
        <path id="Line_23-2" data-name="Line 23" d="M3,1439.121H0V0H3Z" transform="translate(440 0.22)" fill="#ffb7b7"/>
        <path id="Line_24-2" data-name="Line 24" d="M3,1439.121H0V0H3Z" transform="translate(460 0.256)" fill="#ffb7b7"/>
        <path id="Line_25-2" data-name="Line 25" d="M3,1439.121H0V0H3Z" transform="translate(480 0.366)" fill="#ffb7b7"/>
        <path id="Line_26-2" data-name="Line 26" d="M3,1439.121H0V0H3Z" transform="translate(500 0.33)" fill="#ffb7b7"/>
        <path id="Line_27-2" data-name="Line 27" d="M3,1439.121H0V0H3Z" transform="translate(520 0.366)" fill="#ffb7b7"/>
        <path id="Line_28-2" data-name="Line 28" d="M3,1439.121H0V0H3Z" transform="translate(540 0.33)" fill="#ffb7b7"/>
        <path id="Line_29-2" data-name="Line 29" d="M3,1439.121H0V0H3Z" transform="translate(560 0.293)" fill="#ffb7b7"/>
        <path id="Line_30-2" data-name="Line 30" d="M3,1439.121H0V0H3Z" transform="translate(580 0.33)" fill="#ffb7b7"/>
        <path id="Line_31-2" data-name="Line 31" d="M3,1439.121H0V0H3Z" transform="translate(600 0.439)" fill="#ffb7b7"/>
        <path id="Line_32-2" data-name="Line 32" d="M3,1439.121H0V0H3Z" transform="translate(620 0.403)" fill="#ffb7b7"/>
        <path id="Line_33-2" data-name="Line 33" d="M3,1439.121H0V0H3Z" transform="translate(640 0.439)" fill="#ffb7b7"/>
        <path id="Line_34-2" data-name="Line 34" d="M3,1439.121H0V0H3Z" transform="translate(660 0.403)" fill="#ffb7b7"/>
        <path id="Line_35-2" data-name="Line 35" d="M3,1439.121H0V0H3Z" transform="translate(680 0.366)" fill="#ffb7b7"/>
        <path id="Line_36-2" data-name="Line 36" d="M3,1439.121H0V0H3Z" transform="translate(700 0.403)" fill="#ffb7b7"/>
        <path id="Line_37-2" data-name="Line 37" d="M3,1439.121H0V0H3Z" transform="translate(720 0.513)" fill="#ffb7b7"/>
        <path id="Line_38-2" data-name="Line 38" d="M3,1439.121H0V0H3Z" transform="translate(740 0.476)" fill="#ffb7b7"/>
        <path id="Line_39-2" data-name="Line 39" d="M3,1439.121H0V0H3Z" transform="translate(760 0.513)" fill="#ffb7b7"/>
        <path id="Line_40-2" data-name="Line 40" d="M3,1439.121H0V0H3Z" transform="translate(780 0.476)" fill="#ffb7b7"/>
        <path id="Line_41-2" data-name="Line 41" d="M3,1439.121H0V0H3Z" transform="translate(800 0.439)" fill="#ffb7b7"/>
        <path id="Line_42-2" data-name="Line 42" d="M3,1439.121H0V0H3Z" transform="translate(820 0.476)" fill="#ffb7b7"/>
        <path id="Line_43-2" data-name="Line 43" d="M3,1439.121H0V0H3Z" transform="translate(840 0.586)" fill="#ffb7b7"/>
        <path id="Line_44-2" data-name="Line 44" d="M3,1439.121H0V0H3Z" transform="translate(860 0.549)" fill="#ffb7b7"/>
        <path id="Line_45-2" data-name="Line 45" d="M3,1439.121H0V0H3Z" transform="translate(880 0.586)" fill="#ffb7b7"/>
        <path id="Line_46-2" data-name="Line 46" d="M3,1439.121H0V0H3Z" transform="translate(900 0.549)" fill="#ffb7b7"/>
        <path id="Line_47-2" data-name="Line 47" d="M3,1439.121H0V0H3Z" transform="translate(920 0.513)" fill="#ffb7b7"/>
        <path id="Line_48-2" data-name="Line 48" d="M3,1439.121H0V0H3Z" transform="translate(940 0.549)" fill="#ffb7b7"/>
        <path id="Line_49-2" data-name="Line 49" d="M3,1439.121H0V0H3Z" transform="translate(940 0.659)" fill="#ffb7b7"/>
        <path id="Line_50-2" data-name="Line 50" d="M3,1439.121H0V0H3Z" transform="translate(960 0.623)" fill="#ffb7b7"/>
        <path id="Line_51-2" data-name="Line 51" d="M3,1439.121H0V0H3Z" transform="translate(980 0.659)" fill="#ffb7b7"/>
        <path id="Line_52-2" data-name="Line 52" d="M3,1439.121H0V0H3Z" transform="translate(1000 0.623)" fill="#ffb7b7"/>
        <path id="Line_53-2" data-name="Line 53" d="M3,1439.121H0V0H3Z" transform="translate(1020 0.586)" fill="#ffb7b7"/>
        <path id="Line_54-2" data-name="Line 54" d="M3,1439.121H0V0H3Z" transform="translate(1040 0.623)" fill="#ffb7b7"/>
        <path id="Line_55-2" data-name="Line 55" d="M3,1439.121H0V0H3Z" transform="translate(1060 0.732)" fill="#ffb7b7"/>
        <path id="Line_56-2" data-name="Line 56" d="M3,1439.121H0V0H3Z" transform="translate(1080 0.696)" fill="#ffb7b7"/>
        <path id="Line_57-2" data-name="Line 57" d="M3,1439.121H0V0H3Z" transform="translate(1100 0.732)" fill="#ffb7b7"/>
        <path id="Line_58-2" data-name="Line 58" d="M3,1439.121H0V0H3Z" transform="translate(1120 0.696)" fill="#ffb7b7"/>
        <path id="Line_59-2" data-name="Line 59" d="M3,1439.121H0V0H3Z" transform="translate(1140 0.659)" fill="#ffb7b7"/>
        <path id="Line_60-2" data-name="Line 60" d="M3,1439.121H0V0H3Z" transform="translate(1160 0.696)" fill="#ffb7b7"/>
        <path id="Line_61-2" data-name="Line 61" d="M3,1439.121H0V0H3Z" transform="translate(1180 0.806)" fill="#ffb7b7"/>
        <path id="Line_62-2" data-name="Line 62" d="M3,1439.121H0V0H3Z" transform="translate(1200 0.769)" fill="#ffb7b7"/>
        <path id="Line_63-2" data-name="Line 63" d="M3,1439.121H0V0H3Z" transform="translate(1220 0.806)" fill="#ffb7b7"/>
        <path id="Line_64-2" data-name="Line 64" d="M3,1439.121H0V0H3Z" transform="translate(1240 0.769)" fill="#ffb7b7"/>
        <path id="Line_65-2" data-name="Line 65" d="M3,1439.121H0V0H3Z" transform="translate(1260 0.732)" fill="#ffb7b7"/>
        <path id="Line_66-2" data-name="Line 66" d="M3,1439.121H0V0H3Z" transform="translate(1280 0.769)" fill="#ffb7b7"/>
        <path id="Line_67-2" data-name="Line 67" d="M3,1439.121H0V0H3Z" transform="translate(1300 0.879)" fill="#ffb7b7"/>
        <path id="Line_68-2" data-name="Line 68" d="M3,1439.121H0V0H3Z" transform="translate(1320 0.842)" fill="#ffb7b7"/>
        <path id="Line_69-2" data-name="Line 69" d="M3,1439.121H0V0H3Z" transform="translate(1340 0.879)" fill="#ffb7b7"/>
        <path id="Line_70-2" data-name="Line 70" d="M3,1439.121H0V0H3Z" transform="translate(1360 0.842)" fill="#ffb7b7"/>
        <path id="Line_71-2" data-name="Line 71" d="M3,1439.121H0V0H3Z" transform="translate(1380 0.806)" fill="#ffb7b7"/>
        <path id="Line_72-2" data-name="Line 72" d="M3,1439.121H0V0H3Z" transform="translate(1400 0.842)" fill="#ffb7b7"/>
      </g>
      <path id="Line_31-3" data-name="Line 31" d="M3,1439.121H0V0H3Z" transform="translate(4596.439 2896.906) rotate(-90)" fill="#ffb7b7"/>
      <path id="Line_32-3" data-name="Line 32" d="M3,1439.121H0V0H3Z" transform="translate(4596.403 2876.906) rotate(-90)" fill="#ffb7b7"/>
      <path id="Line_33-3" data-name="Line 33" d="M3,1439.121H0V0H3Z" transform="translate(4596.439 2856.906) rotate(-90)" fill="#ffb7b7"/>
      <path id="Line_34-3" data-name="Line 34" d="M3,1439.121H0V0H3Z" transform="translate(4596.403 2836.906) rotate(-90)" fill="#ffb7b7"/>
      <path id="Line_35-3" data-name="Line 35" d="M3,1439.121H0V0H3Z" transform="translate(4596.366 2816.906) rotate(-90)" fill="#ffb7b7"/>
      <path id="Line_36-3" data-name="Line 36" d="M3,1439.121H0V0H3Z" transform="translate(4596.403 2796.906) rotate(-90)" fill="#ffb7b7"/>
      <path id="Line_37-3" data-name="Line 37" d="M3,1439.121H0V0H3Z" transform="translate(4596.513 2776.906) rotate(-90)" fill="#ffb7b7"/>
      <path id="Line_38-3" data-name="Line 38" d="M3,1439.121H0V0H3Z" transform="translate(4596.476 2756.906) rotate(-90)" fill="#ffb7b7"/>
      <path id="Line_39-3" data-name="Line 39" d="M3,1439.121H0V0H3Z" transform="translate(4596.513 2736.906) rotate(-90)" fill="#ffb7b7"/>
      <path id="Line_40-3" data-name="Line 40" d="M3,1439.121H0V0H3Z" transform="translate(4596.476 2716.906) rotate(-90)" fill="#ffb7b7"/>
      <path id="Line_41-3" data-name="Line 41" d="M3,1439.121H0V0H3Z" transform="translate(4596.439 2696.906) rotate(-90)" fill="#ffb7b7"/>
      <path id="Line_42-3" data-name="Line 42" d="M3,1439.121H0V0H3Z" transform="translate(4596.476 2676.906) rotate(-90)" fill="#ffb7b7"/>
      <path id="Line_43-3" data-name="Line 43" d="M3,1439.121H0V0H3Z" transform="translate(4596.586 2656.906) rotate(-90)" fill="#ffb7b7"/>
      <path id="Line_44-3" data-name="Line 44" d="M3,1439.121H0V0H3Z" transform="translate(4596.549 2636.906) rotate(-90)" fill="#ffb7b7"/>
      <path id="Line_45-3" data-name="Line 45" d="M3,1439.121H0V0H3Z" transform="translate(4596.586 2616.906) rotate(-90)" fill="#ffb7b7"/>
      <path id="Line_46-3" data-name="Line 46" d="M3,1439.121H0V0H3Z" transform="translate(4596.549 2596.906) rotate(-90)" fill="#ffb7b7"/>
      <path id="Line_47-3" data-name="Line 47" d="M3,1439.121H0V0H3Z" transform="translate(4596.513 2576.906) rotate(-90)" fill="#ffb7b7"/>
      <path id="Line_48-3" data-name="Line 48" d="M3,1439.121H0V0H3Z" transform="translate(4596.549 2556.906) rotate(-90)" fill="#ffb7b7"/>
      <path id="Line_49-3" data-name="Line 49" d="M3,1439.121H0V0H3Z" transform="translate(4596.659 2556.906) rotate(-90)" fill="#ffb7b7"/>
      <path id="Line_50-3" data-name="Line 50" d="M3,1439.121H0V0H3Z" transform="translate(4596.623 2536.906) rotate(-90)" fill="#ffb7b7"/>
      <path id="Line_51-3" data-name="Line 51" d="M3,1439.121H0V0H3Z" transform="translate(4596.659 2516.906) rotate(-90)" fill="#ffb7b7"/>
      <path id="Line_52-3" data-name="Line 52" d="M3,1439.121H0V0H3Z" transform="translate(4596.623 2496.906) rotate(-90)" fill="#ffb7b7"/>
      <path id="Line_53-3" data-name="Line 53" d="M3,1439.121H0V0H3Z" transform="translate(4596.586 2476.906) rotate(-90)" fill="#ffb7b7"/>
      <path id="Line_54-3" data-name="Line 54" d="M3,1439.121H0V0H3Z" transform="translate(4596.623 2444.342) rotate(-90)" fill="#ffb7b7"/>
      <path id="Line_55-3" data-name="Line 55" d="M3,1439.121H0V0H3Z" transform="translate(4596.732 2423.778) rotate(-90)" fill="#ffb7b7"/>
      <path id="Line_56-3" data-name="Line 56" d="M3,1439.121H0V0H3Z" transform="translate(4596.696 2403.214) rotate(-90)" fill="#ffb7b7"/>
      <path id="Line_57-3" data-name="Line 57" d="M3,1439.121H0V0H3Z" transform="translate(4596.732 2382.649) rotate(-90)" fill="#ffb7b7"/>
      <path id="Line_58-3" data-name="Line 58" d="M3,1439.121H0V0H3Z" transform="translate(4596.696 2362.085) rotate(-90)" fill="#ffb7b7"/>
      <path id="Line_59-3" data-name="Line 59" d="M3,1439.121H0V0H3Z" transform="translate(4596.659 2341.521) rotate(-90)" fill="#ffb7b7"/>
      <path id="Line_60-3" data-name="Line 60" d="M3,1439.121H0V0H3Z" transform="translate(4596.696 2320.957) rotate(-90)" fill="#ffb7b7"/>
      <path id="Line_61-3" data-name="Line 61" d="M3,1439.121H0V0H3Z" transform="translate(4596.806 2300.392) rotate(-90)" fill="#ffb7b7"/>
      <path id="Line_62-3" data-name="Line 62" d="M3,1439.121H0V0H3Z" transform="translate(4596.769 2279.828) rotate(-90)" fill="#ffb7b7"/>
      <path id="Line_63-3" data-name="Line 63" d="M3,1439.121H0V0H3Z" transform="translate(4596.806 2259.264) rotate(-90)" fill="#ffb7b7"/>
      <path id="Line_64-3" data-name="Line 64" d="M3,1439.121H0V0H3Z" transform="translate(4596.769 2238.7) rotate(-90)" fill="#ffb7b7"/>
      <path id="Line_65-3" data-name="Line 65" d="M3,1439.121H0V0H3Z" transform="translate(4596.732 2218.135) rotate(-90)" fill="#ffb7b7"/>
      <path id="Line_66-3" data-name="Line 66" d="M3,1439.121H0V0H3Z" transform="translate(4596.769 2197.571) rotate(-90)" fill="#ffb7b7"/>
      <path id="Line_67-3" data-name="Line 67" d="M3,1439.121H0V0H3Z" transform="translate(4596.879 2177.007) rotate(-90)" fill="#ffb7b7"/>
      <path id="Line_68-3" data-name="Line 68" d="M3,1439.121H0V0H3Z" transform="translate(4596.842 2156.443) rotate(-90)" fill="#ffb7b7"/>
      <path id="Line_69-3" data-name="Line 69" d="M3,1439.121H0V0H3Z" transform="translate(4596.879 2135.878) rotate(-90)" fill="#ffb7b7"/>
      <path id="Line_70-3" data-name="Line 70" d="M3,1439.121H0V0H3Z" transform="translate(4596.842 2115.314) rotate(-90)" fill="#ffb7b7"/>
      <path id="Line_71-3" data-name="Line 71" d="M3,1439.121H0V0H3Z" transform="translate(4596 2050.246) rotate(-90)" fill="#ffb7b7"/>
      <path id="Line_72-3" data-name="Line 72" d="M3,1439.121H0V0H3Z" transform="translate(4596 2032.186) rotate(-90)" fill="#ffb7b7"/>
      <path id="Line_70-4" data-name="Line 70" d="M3,1439.121H0V0H3Z" transform="translate(4596 2068.306) rotate(-90)" fill="#ffb7b7"/>
      <path id="Line_70-5" data-name="Line 70" d="M3,1439.121H0V0H3Z" transform="translate(4596.439 2092.306) rotate(-90)" fill="#ffb7b7"/>
    </g>
  </g>
</svg>
