<svg xmlns="http://www.w3.org/2000/svg" width="21" height="19.445" viewBox="0 0 21 19.445">
  <g id="Group_5888" data-name="Group 5888" transform="translate(-13.5 -14.278)">
    <g id="Group_25" data-name="Group 25" transform="translate(13.5 14.278)">
      <path id="Path_11" data-name="Path 11" d="M1705.306,48.922a1.494,1.494,0,0,1-1.011-.392l-17.9-16.344a1.5,1.5,0,1,1,2.023-2.215l17.9,16.344a1.5,1.5,0,0,1-1.012,2.608Z" transform="translate(-1685.91 -29.516)" fill="#fff"/>
      <path id="Path_13" data-name="Path 13" d="M1687.411,16.91A1.5,1.5,0,0,1,1686.4,14.3l18-16.445a1.5,1.5,0,0,1,2.119.1,1.5,1.5,0,0,1-.1,2.119l-18,16.445A1.5,1.5,0,0,1,1687.411,16.91Z" transform="translate(-1685.91 2.535)" fill="#fff"/>
    </g>
  </g>
</svg>
