<svg xmlns="http://www.w3.org/2000/svg" width="30" height="30" viewBox="0 0 30 30">
  <g id="Group_868" data-name="Group 868" transform="translate(-286 -2630)">
    <path id="gift" d="M25.833,16.334V27a2.667,2.667,0,0,1-2.667,2.667H9.833A2.667,2.667,0,0,1,7.167,27V16.334A2.667,2.667,0,0,1,4.5,13.667V11A2.667,2.667,0,0,1,7.167,8.334h1.56A4,4,0,1,1,16.5,7a4,4,0,1,1,7.773,1.333h1.56A2.667,2.667,0,0,1,28.5,11v2.667A2.667,2.667,0,0,1,25.833,16.334ZM15.167,11h-8v2.667h8Zm2.667,0v2.667h8V11Zm-8,5.333V27H23.167V16.334Zm2.667-8h1.333V7A1.333,1.333,0,1,0,12.5,8.334Zm8,0A1.333,1.333,0,1,0,19.167,7V8.334Z" transform="translate(284.5 2628.993)" fill="#82bc75" fill-rule="evenodd"/>
    <rect id="Rectangle_56" data-name="Rectangle 56" width="30" height="30" transform="translate(286 2630)" fill="none"/>
  </g>
</svg>
